<svg xmlns="http://www.w3.org/2000/svg" viewBox="0 0 550 200"><g fill="none" stroke-width="2"><path stroke="#1d9bdd" d="M245.75 56.29q-.1 1.78-1.79 2.46" vector-effect="non-scaling-stroke"/><path stroke="#13a5e5" d="M243.96 58.75q-6.84 1.98-11.71 7.21" vector-effect="non-scaling-stroke"/><path stroke="#1ea3df" stroke-opacity=".953" d="M232.25 65.96q1.14-2.72-1.79-2.06-1.6.36-3.81-1.43" vector-effect="non-scaling-stroke"/><path stroke="#1b77af" stroke-opacity=".667" d="M265.04 56.5 258.96 68" vector-effect="non-scaling-stroke"/><path stroke="#1b77b0" stroke-opacity=".737" d="M258.96 68 249 87.79" vector-effect="non-scaling-stroke"/><path stroke="#1a79b4" stroke-opacity=".812" d="m249 87.79-3.79 7.71" vector-effect="non-scaling-stroke"/><path stroke="#1b7db9" stroke-opacity=".847" d="m245.21 95.5-4.25 8.75" vector-effect="non-scaling-stroke"/><path stroke="#1a7fc0" stroke-opacity=".914" d="m240.96 104.25-2.66 5.5" vector-effect="non-scaling-stroke"/><path stroke="#197abf" d="m238.3 109.75-21.49-.66a1.2.69-58.7 0 0-.77.42q-.23.26-.55.4" vector-effect="non-scaling-stroke"/><path stroke="#1092d7" d="M215.49 109.91q-.91.3-1.78 1.09" vector-effect="non-scaling-stroke"/><path stroke="#1875ae" stroke-opacity=".722" d="M213.71 111q2.59-2.96 3.58-6.75" vector-effect="non-scaling-stroke"/><path stroke="#1979b2" stroke-opacity=".78" d="m217.29 104.25.67-2" vector-effect="non-scaling-stroke"/><path stroke="#1092d7" d="M217.96 102.25q.17.97-.12 1.91a.53.42-67.8 0 0 .17.58c.47.25.55-.49.68-.67q14.86-21.44 25.27-45.32" vector-effect="non-scaling-stroke"/><path stroke="#0c85bd" stroke-opacity=".78" d="m217.96 102.25 2.08-6.5" vector-effect="non-scaling-stroke"/><path stroke="#0d89c3" stroke-opacity=".827" d="m220.04 95.75 2.21-6.96" vector-effect="non-scaling-stroke"/><path stroke="#0f8fcb" stroke-opacity=".882" d="m222.25 88.79 4.29-13.54" vector-effect="non-scaling-stroke"/><path stroke="#1099d9" stroke-opacity=".953" d="M226.54 75.25q2.35-4.96 5.71-9.29" vector-effect="non-scaling-stroke"/><path stroke="#1a6eb5" stroke-opacity=".914" d="M231.04 132q-.31-1.41-1.32-1.2-1.61.32-.43-.82 3.24-3.16 1.63-4.61a1.03.83-70.8 0 1-.28-.77l.07-1.1" vector-effect="non-scaling-stroke"/><path stroke="#1970af" stroke-opacity=".914" d="M230.71 123.5c1.98-2.26 2.89-5.4 4.02-7.39q1.8-3.17 3.57-6.36" vector-effect="non-scaling-stroke"/><path stroke="#0e7abe" d="M208.44 127.94q-1.48 3.69-3.69 6.35" vector-effect="non-scaling-stroke"/><path stroke="#0f7dc5" d="M204.75 134.29q-3.06-4-4-9" vector-effect="non-scaling-stroke"/><path stroke="#0582bb" stroke-opacity=".667" d="m202.5 123.71 6.29-6.71" vector-effect="non-scaling-stroke"/><path stroke="#0a82ba" stroke-opacity=".722" d="m213.71 111-4.92 6" vector-effect="non-scaling-stroke"/><path stroke="#196bb6" d="m230.71 123.5-3.67 5.5" vector-effect="non-scaling-stroke"/><path stroke="#1762a7" d="M227.04 129c.1-.94-.42-1.53-1.37-1.6q-8.63-.67-17.23.54" vector-effect="non-scaling-stroke"/><path stroke="#0f84c8" d="M208.44 127.94q4.02-8.42 7.05-18.03" vector-effect="non-scaling-stroke"/><path stroke="#1864b3" d="m191.5 133.96 6.35 5.25a.92.82-34.8 0 0 .88.11q3.13-1.2 5.77-3.36" vector-effect="non-scaling-stroke"/><path stroke="#1761ac" d="M204.5 135.96c1.59 1.58 3.11 4.12 5.33 4.54 6.46 1.23 14.25-7.1 17.21-11.5" vector-effect="non-scaling-stroke"/><path stroke="#165ca4" d="M204.75 134.29q-.71.72-.25 1.67" vector-effect="non-scaling-stroke"/><path stroke="#147bbf" d="M185.5 122.29q2.33 5.63 6.04 10.46" vector-effect="non-scaling-stroke"/><path stroke="#165ca4" d="m191.54 132.75-.04 1.21" vector-effect="non-scaling-stroke"/><path stroke="#1761ac" d="M191.5 133.96q-4.83 3.08-10.11 5.25a1.15.8-9.8 0 0-.65.64c-.39 1.43 2.74 1.25 3.76 1.61" vector-effect="non-scaling-stroke"/><path stroke="#1d72b7" d="m175 141.46-.96-.46" vector-effect="non-scaling-stroke"/><path stroke="#157fc6" d="M194.5 131.04q-1.18 1.41-2.96 1.71" vector-effect="non-scaling-stroke"/><path stroke="#1e75be" d="M200.54 125.25q-2.61 3.3-6.04 5.79" vector-effect="non-scaling-stroke"/><path stroke="#1c95d8" d="m194.5 131.04-3.29-9.79" vector-effect="non-scaling-stroke"/><path stroke="#1565a9" d="M184.96 121.25q-9.95-.53-19.8 1.09" vector-effect="non-scaling-stroke"/><path stroke="#299ada" d="M197.25 113.96q-.19 2.66-2.8 1.71c-1.54-.57-2.56-.53-4.05-.3a.48.47-10.1 0 0-.4.57l1.21 5.31" vector-effect="non-scaling-stroke"/><path stroke="#1fa3e2" d="M191.21 121.25q-1.06 1.01-2.27.49a1.16.98 41 0 0-.88-.01q-1.22.58-2.56.56" vector-effect="non-scaling-stroke"/><path stroke="#2180c1" d="m185.5 122.29-.54-1.04" vector-effect="non-scaling-stroke"/><path stroke="#208dcd" d="m184.96 121.25-7.46-20.54" vector-effect="non-scaling-stroke"/><path stroke="#2095d5" d="m177.5 100.71-5.64-17.08" vector-effect="non-scaling-stroke"/><path stroke="#1a98d9" d="m149.54 84.5 6.69 16.7" vector-effect="non-scaling-stroke"/><path stroke="#1a90d0" d="M156.23 101.2q3.9 11.16 8.93 21.14" vector-effect="non-scaling-stroke"/><path stroke="#1a83c4" d="M165.16 122.34q4.64 10.62 13.72 17.03.64.45-.12.61l-4.72 1.02" vector-effect="non-scaling-stroke"/><path stroke="#229dde" d="M174.04 141q-8.44-3.55-13.08-11.5" vector-effect="non-scaling-stroke"/><path stroke="#2da9e5" d="M160.96 129.5q-5-9.75-8.36-19.9" vector-effect="non-scaling-stroke"/><path stroke="#147abe" d="M177.5 100.71q-10.65-.7-21.27.49" vector-effect="non-scaling-stroke"/><path stroke="#3098d8" d="M160.96 129.5c-2.13.34-6.7-.61-7.25 2" vector-effect="non-scaling-stroke"/><path stroke="#2586bb" stroke-opacity=".796" d="M165.75 58.29c-2.07.14-1.28 1.23-.32 1.82q5.32 3.27 8.6 8.64" vector-effect="non-scaling-stroke"/><path stroke="#268dc4" stroke-opacity=".855" d="m174.03 68.75 4.68 8.75" vector-effect="non-scaling-stroke"/><path stroke="#2896ce" stroke-opacity=".91" d="m178.71 77.5 1.6 4.08" vector-effect="non-scaling-stroke"/><path stroke="#2a9ddd" d="M180.31 81.58q-3.84-2.48-8.32-.6-.8-.33-.53 1.02" vector-effect="non-scaling-stroke"/><path stroke="#2ba2d7" stroke-opacity=".91" d="M190.54 86.95q-.6.24-1 .59-.48.42-.81.53-2.93.91-5.35-.53c-2.06-1.22-2.46-3.73-3.07-5.96" vector-effect="non-scaling-stroke"/><path stroke="#1d7cc1" d="M162.25 58.21q-2.95-.16-4.66 2.08a.5.49 36.6 0 0 .11.7c6.78 4.89 11.02 13.29 13.76 21.01" vector-effect="non-scaling-stroke"/><path stroke="#1f87c8" d="m171.46 82 .4 1.63" vector-effect="non-scaling-stroke"/><path stroke="#1374b9" d="m171.86 83.63-20.37 1.06q-.11.01-.89.35-.53.24-1.06-.54" vector-effect="non-scaling-stroke"/><path stroke="#198acc" d="m149.54 84.5-.54-1.04" vector-effect="non-scaling-stroke"/><path stroke="#1d7cc1" d="M149 83.46q-2.85-7.18-7.28-13.49a.55.48 54.7 0 0-.72-.17l-1.75 1.24" vector-effect="non-scaling-stroke"/><path stroke="#24a0e0" d="m149 83.46-4.71.79" vector-effect="non-scaling-stroke"/><path stroke="#3fa9e2" d="M144.29 84.25c-2.18-4.15-2.97-8.36-5.79-12.29" vector-effect="non-scaling-stroke"/><path stroke="#3ab7ed" d="M144.29 84.25q4.6 12.38 8.31 25.35" vector-effect="non-scaling-stroke"/><path stroke="#48b2e7" d="m152.6 109.6-7.56 1.4" vector-effect="non-scaling-stroke"/><path stroke="#39a0d7" d="M120.93 57.83q-.33.93.26.98 8.81.72 14.06 7.48" vector-effect="non-scaling-stroke"/><path stroke="#1070b7" d="M135.25 66.29q1.43 2.87 4 4.75" vector-effect="non-scaling-stroke"/><path stroke="#1b86cb" d="m139.25 71.04-.75.92" vector-effect="non-scaling-stroke"/><path stroke="#329dd8" d="M138.5 71.96 135.96 74" vector-effect="non-scaling-stroke"/><path stroke="#178cc8" stroke-opacity=".961" d="m135.96 74-2.57-5.23a.49.47 63.2 0 0-.65-.23q-2.67 1.41-4.74 3.67" vector-effect="non-scaling-stroke"/><path stroke="#1a88c3" stroke-opacity=".91" d="m128 72.21-2.5 2.5" vector-effect="non-scaling-stroke"/><path stroke="#39a0d7" d="m125.5 74.71-.5.33" vector-effect="non-scaling-stroke"/><path stroke="#1176bb" d="M125 75.04q-1.71-.48-.36-1.61a.65.51-38 0 0 .19-.76c-.5-.76-25.25 7.98-28.7 8.18a1.31.65-56.6 0 0-.75.44l-2.09 2.21" vector-effect="non-scaling-stroke"/><path stroke="#218bd0" d="M93.29 83.5q5.4-10.73 13.88-19.19.51-.51-.1-.45c-.95.09-8.11 7.25-9.28 8.39" vector-effect="non-scaling-stroke"/><path stroke="#0a6ba6" stroke-opacity=".737" d="m97.79 72.25-.58-2" vector-effect="non-scaling-stroke"/><path stroke="#3b96cd" d="M155.03 58.17q-6.53 1.25-9.95 2.67-3.68 1.52-9.83 5.45" vector-effect="non-scaling-stroke"/><path stroke="#3cb1e0" stroke-opacity=".961" d="m135.96 74-.46.71" vector-effect="non-scaling-stroke"/><path stroke="#2ea5d8" stroke-opacity=".91" d="M120.29 92.5q-.22-2.39.81-4.41" vector-effect="non-scaling-stroke"/><path stroke="#49b2db" stroke-opacity=".91" d="M121.1 88.09c.44-1.34 4.93-13.21 4.4-13.38" vector-effect="non-scaling-stroke"/><path stroke="#2487ca" d="m93.29 83.5-7.54 14.21" vector-effect="non-scaling-stroke"/><path stroke="#2381c5" d="m85.75 97.71-10.77 21.1a.75.44-63.3 0 1-.71.46q-.45-.19-.06-1.52" vector-effect="non-scaling-stroke"/><path stroke="#2482ba" stroke-opacity=".737" d="M74.21 117.75q7.14-25.19 23.58-45.5" vector-effect="non-scaling-stroke"/><path stroke="#4cbaeb" d="M121.1 88.09q-3.04 1.92-6.61.24-.4-.19-.28-.83" vector-effect="non-scaling-stroke"/><path stroke="#0d5e98" stroke-opacity=".737" d="m74.21 117.75-1.17 3.5" vector-effect="non-scaling-stroke"/><path stroke="#3c9bd1" d="M125 75.04 114.21 87.5" vector-effect="non-scaling-stroke"/><path stroke="#2490cf" d="m114.21 87.5-3.56 4.53" vector-effect="non-scaling-stroke"/><path stroke="#136cb1" d="M110.65 92.03q-3.32-2.23-6.52-.12c-6.04 3.97-10.54 4.53-18.38 5.8" vector-effect="non-scaling-stroke"/><path stroke="#1e9dd8" stroke-opacity=".929" d="m118.09 96.65-7.59 10.14" vector-effect="non-scaling-stroke"/><path stroke="#1da5e4" d="m110.5 106.79-9.71.21" vector-effect="non-scaling-stroke"/><path stroke="#238aca" d="m100.79 107 9.86-14.97" vector-effect="non-scaling-stroke"/><path stroke="#0c81c6" d="m100.79 107-3.94 6.61" vector-effect="non-scaling-stroke"/><path stroke="#1074bb" d="m96.85 113.61-7.42 13.38" vector-effect="non-scaling-stroke"/><path stroke="#145fa5" d="M89.43 126.99q-1.76-2.12-3.17-.2a1.77 1.25-73.8 0 1-.74.59q-7.22 2.69-14.73 4.37" vector-effect="non-scaling-stroke"/><path stroke="#0c84c9" d="M70.79 131.75q.91-2.98.71-6.04" vector-effect="non-scaling-stroke"/><path stroke="#0e5a95" stroke-opacity=".667" d="m71.5 125.71 1.54-4.46" vector-effect="non-scaling-stroke"/><path stroke="#0587c0" stroke-opacity=".667" d="m71.5 125.71-9.54 17.79" vector-effect="non-scaling-stroke"/><path stroke="#0a8fd5" d="M105.96 114.25q-4.56.97-9.11-.64" vector-effect="non-scaling-stroke"/><path stroke="#0985c8" stroke-opacity=".929" d="M104.28 117.67q1.38-1.49 1.68-3.42" vector-effect="non-scaling-stroke"/><path stroke="#0693d3" stroke-opacity=".929" d="m105.96 114.25 4.54-7.46" vector-effect="non-scaling-stroke"/><path stroke="#098bcf" stroke-opacity=".961" d="m104.28 117.67-6.07 10.58" vector-effect="non-scaling-stroke"/><path stroke="#0a8fd5" d="m98.21 128.25-3.42 6" vector-effect="non-scaling-stroke"/><path stroke="#1074bb" d="M94.79 134.25q-2.96-1.75-7.04-1.25-.95.12-.79-1" vector-effect="non-scaling-stroke"/><path stroke="#116db4" d="m86.96 132 2.47-5.01" vector-effect="non-scaling-stroke"/><path stroke="#145fa5" d="M86.96 132q-3.62 5.33-4.62 11.68" vector-effect="non-scaling-stroke"/><path stroke="#0d7dc2" d="m70.79 131.75-2.54 11.96" vector-effect="non-scaling-stroke"/><path stroke="#0698da" stroke-opacity=".961" d="M107.25 128.79q-.87-.88-1.02.2a1.17.38-31.9 0 1-.56.66l-1.28.97q-.11.08-.71.17-.63.09-.93-.27a.36.25 58.4 0 1 .03-.51q.77-.23-.3-.5-2.85-.72-3.05.49-.24 1.42-1.37.43a.72.67-54.8 0 1-.12-.86q.37-.63.27-1.32" vector-effect="non-scaling-stroke"/><path stroke="#0c81c6" d="M84.88 143.13q6.38-2.92 9.91-8.88" vector-effect="non-scaling-stroke"/></g><path fill="#1faeeb" d="M245.75 56.29q-.1 1.78-1.79 2.46-6.84 1.98-11.71 7.21 1.14-2.72-1.79-2.06-1.6.36-3.81-1.43 8.61-5.94 19.1-6.18Z"/><path fill="#1a88ce" d="m245.75 56.29 19.29.21-6.08 11.5L249 87.79l-3.79 7.71-4.25 8.75-2.66 5.5-21.49-.66a1.2.69-58.7 0 0-.77.42q-.23.26-.55.4-.91.3-1.78 1.09 2.59-2.96 3.58-6.75l.67-2q.17.97-.12 1.91a.53.42-67.8 0 0 .17.58c.47.25.55-.49.68-.67q14.86-21.44 25.27-45.32 1.69-.68 1.79-2.46Z"/><path fill="#1d4350" fill-opacity=".329" d="M271.46 69.75q-1 .58-1.67 1.63-.41.65-.56.11-.3-1.08-1.48-.72a.98.33 53.6 0 1-.74-.52q-.71-.88-1.45-.2a.75.34-38.3 0 1-.91.23l-.7-2.01q-.37-1.08-.63-.64l-.93 1.55a.62.13-60 0 1-.4.44q-1.74-.49-3.03-1.62l6.08-11.5 13.11.14a.37.36-74.8 0 1 .3.54l-6.99 12.57Z"/><path fill="#0e7ac1" d="M120.93 57.83q-.33.93.26.98 8.81.72 14.06 7.48 1.43 2.87 4 4.75l-.75.92-2.54 2.04-2.57-5.23a.49.47 63.2 0 0-.65-.23q-2.67 1.41-4.74 3.67l-2.5 2.5-.5.33q-1.71-.48-.36-1.61a.65.51-38 0 0 .19-.76c-.5-.76-25.25 7.98-28.7 8.18a1.31.65-56.6 0 0-.75.44l-2.09 2.21q5.4-10.73 13.88-19.19.51-.51-.1-.45c-.95.09-8.11 7.25-9.28 8.39l-.58-2q9.46-10.84 23.72-12.42Z"/><path fill="#64c5ed" d="m120.93 57.83 34.1.34q-6.53 1.25-9.95 2.67-3.68 1.52-9.83 5.45-5.25-6.76-14.06-7.48-.59-.05-.26-.98Z"/><path fill="#1266ac" d="m155.03 58.17 7.22.04q-2.95-.16-4.66 2.08a.5.49 36.6 0 0 .11.7c6.78 4.89 11.02 13.29 13.76 21.01l.4 1.63-20.37 1.06q-.11.01-.89.35-.53.24-1.06-.54l-.54-1.04q-2.85-7.18-7.28-13.49a.55.48 54.7 0 0-.72-.17l-1.75 1.24q-2.57-1.88-4-4.75 6.15-3.93 9.83-5.45 3.42-1.42 9.95-2.67Z"/><path fill="#2892d5" d="m162.25 58.21 3.5.08c-2.07.14-1.28 1.23-.32 1.82q5.32 3.27 8.6 8.64l4.68 8.75 1.6 4.08q-3.84-2.48-8.32-.6-.8-.33-.53 1.02c-2.74-7.72-6.98-16.12-13.76-21.01a.5.49 36.6 0 1-.11-.7q1.71-2.24 4.66-2.08Z"/><path fill="#1f738f" fill-opacity=".592" d="M165.75 58.29c8.26-.65 15.1 5.66 18.29 12.71l-3.09 1.13a1.32.86 41.1 0 1-.94-.13q-1.52-.81-2.3.45a.42.37-49.6 0 1-.64.09l-3.04-3.79q-3.28-5.37-8.6-8.64c-.96-.59-1.75-1.68.32-1.82Z"/><path fill="#069bdf" d="M243.96 58.75q-10.41 23.88-25.27 45.32c-.13.18-.21.92-.68.67a.53.42-67.8 0 1-.17-.58q.29-.94.12-1.91l2.08-6.5 2.21-6.96 4.29-13.54q2.35-4.96 5.71-9.29 4.87-5.23 11.71-7.21Z"/><path fill="#1c97d2" fill-opacity=".902" d="M226.65 62.47q2.21 1.79 3.81 1.43 2.93-.66 1.79 2.06-3.36 4.33-5.71 9.29 1.63-5.77-1.03-1.54a1.93 1.05 13.5 0 1-1.71.46q-3.14-.42-6.05.79 2.72-7.52 8.9-12.49Z"/><path fill="#349cde" d="m93.29 83.5-7.54 14.21-10.77 21.1a.75.44-63.3 0 1-.71.46q-.45-.19-.06-1.52 7.14-25.19 23.58-45.5c1.17-1.14 8.33-8.3 9.28-8.39q.61-.06.1.45-8.48 8.46-13.88 19.19Z"/><path fill="#1d5470" fill-opacity=".475" d="m271.46 69.75-8.37 14.86q-4.93.26-3.26-3.43.55-1.22-.14-1.2a.78.73-78 0 0-.67.47L256 87.21q-3.09 4.9-7 .58L258.96 68q1.29 1.13 3.03 1.62a.62.13-60 0 0 .4-.44l.93-1.55q.26-.44.63.64l.7 2.01a.75.34-38.3 0 0 .91-.23q.74-.68 1.45.2a.98.33 53.6 0 0 .74.52q1.18-.36 1.48.72.15.54.56-.11.67-1.05 1.67-1.63Z"/><path fill="#20a0d0" fill-opacity=".922" d="m135.96 74-.46.71-7.04 7.54q-.56-.9.57-1.55a2.09 2.08-15.8 0 0 1.04-1.85c-.03-1.39.7-7.63-2.07-6.64q2.07-2.26 4.74-3.67a.49.47 63.2 0 1 .65.23l2.57 5.23Z"/><path fill="#2386ab" fill-opacity=".706" d="m174.03 68.75 3.04 3.79a.42.37-49.6 0 0 .64-.09q.78-1.26 2.3-.45a1.32.86 41.1 0 0 .94.13l3.09-1.13 2.17 4q-.33 1.09-.13 2.2a.42.39 85.2 0 1-.39.49l-6.98-.19-4.68-8.75Z"/><path fill="#2892d5" d="m149 83.46-4.71.79c-2.18-4.15-2.97-8.36-5.79-12.29l.75-.92L141 69.8a.55.48 54.7 0 1 .72.17q4.43 6.31 7.28 13.49Z"/><path fill="#024c6e" fill-opacity=".471" d="m97.21 70.25.58 2q-16.44 20.31-23.58 45.5l-1.17 3.5c-.09-4.36-.74.72-1.41.06a1.1.55-76.8 0 1-.19-.81l.63-8.25a.38.21 88.7 0 0-.25-.43l-.27.1a.64.5-8.9 0 0-.42.45q-.26 1.77-1.84 2.38 9.55-25.05 27.92-44.5Z"/><path fill="#1a80b1" fill-opacity=".765" d="m226.54 75.25-4.29 13.54q-.45-1.55-.97-.98a1.08.9-64.4 0 1-.78.36l-4.5-.23a1.18.78 64.8 0 1-.74-.45q-.27-.35-.68-.42a.9.32-81.1 0 0-.46.84q-.27 1.65-1.45 2.75 1.91-8.21 5.08-15.7 2.91-1.21 6.05-.79a1.93 1.05 13.5 0 0 1.71-.46q2.66-4.23 1.03 1.54Z"/><path fill="#289ac5" fill-opacity=".82" d="m128.46 82.25-8.17 10.25q-.22-2.39.81-4.41c.44-1.34 4.93-13.21 4.4-13.38l2.5-2.5c2.77-.99 2.04 5.25 2.07 6.64a2.09 2.08-15.8 0 1-1.04 1.85q-1.13.65-.57 1.55Z"/><path fill="#55c0ee" d="M138.5 71.96c2.82 3.93 3.61 8.14 5.79 12.29q4.6 12.38 8.31 25.35l-7.56 1.4c-.9-3.62-8.61-35.9-9.54-36.29l.46-.71 2.54-2.04Z"/><path fill="#1471b5" d="M125 75.04 114.21 87.5l-3.56 4.53q-3.32-2.23-6.52-.12c-6.04 3.97-10.54 4.53-18.38 5.8l7.54-14.21 2.09-2.21a1.31.65-56.6 0 1 .75-.44c3.45-.2 28.2-8.94 28.7-8.18a.65.51-38 0 1-.19.76q-1.35 1.13.36 1.61Z"/><path fill="#64c5ed" d="M125.5 74.71c.53.17-3.96 12.04-4.4 13.38q-3.04 1.92-6.61.24-.4-.19-.28-.83L125 75.04l.5-.33Z"/><path fill="#289ac5" fill-opacity=".82" d="m186.21 75 4.33 11.95q-.6.24-1 .59-.48.42-.81.53-2.93.91-5.35-.53c-2.06-1.22-2.46-3.73-3.07-5.96l-1.6-4.08 6.98.19a.42.39 85.2 0 0 .39-.49q-.2-1.11.13-2.2Z"/><rect width="4" height="37" x="447.75" y="76.25" rx=".6"/><path d="M476.45 109.49q-.28.03-.47.26c-5.4 6.58-15.55 4.93-18-3.45-1.75-5.98-.55-13.66 5.05-17.01 3.74-2.25 9.84-2.24 12.84 1.54q.67.84.66-.27L476.48 77a.75.52-90 0 1 .52-.75h3a.75.5 90 0 1 .5.75v35.5a.76.58-10.3 0 1-.55.6q-4.69 1.37-3.2-3.06a.42.32-81.2 0 0-.3-.55Zm.078-11.151a6.9 6.9 0 0 0-6.63-7.16l-1.14-.044a6.9 6.9 0 0 0-7.16 6.63l-.206 5.376a6.9 6.9 0 0 0 6.63 7.16l1.14.044a6.9 6.9 0 0 0 7.16-6.63l.206-5.376Z"/><circle cx="438.62" cy="79.41" r="2.6"/><path d="M340.5 85.4c2.02-8.22 12.16-8.59 18.52-6.8a.97.55 12.1 0 1 .73.65v3.5a.47.43 14.5 0 1-.68.36c-3.83-1.95-12.23-3.08-14.28 2.09-2.52 6.34 10.94 9.63 14.36 13.67 3.35 3.96 2.7 10.04-1.85 12.85-4.7 2.89-11.51 2.36-16.34.48a1.06.56 16.7 0 1-.71-.7v-3.75q-.01-.63.63-.24c4.31 2.59 17.82 4.91 16.04-3.77q-.59-2.87-3.21-4.19c-5.24-2.66-15.13-6.36-13.21-14.15ZM301.99 85.75l.01 26.75a.75.5-90 0 1-.5.75h-3a.75.5 90 0 1-.5-.75V79a.75.5-90 0 1 .5-.75h4.5a1.13.68 72.6 0 1 .79.7l11.73 26.68q.41.94.82.05l11.81-26.26a1.91 1.16-72.4 0 1 1.35-1.18l3.75.01a.75.51-89.6 0 1 .5.75v33.5a.75.5-90 0 1-.5.75h-3a.75.54-90 0 1-.54-.75l.12-27.75q0-.62-.24-.06-6.17 14.13-12.17 27.45c-.48 1.05-1.09 1.44-2.18 1.02a1.42 1.05 82.6 0 1-.69-.72l-11.98-26.86q-.58-1.28-.58.17ZM396.97 94.64c11.25 3.52 7.48 17.59-3.05 18.51q-4.23.37-11.35-.02a.63.61-88.1 0 1-.57-.63V79a.62.6 88.5 0 1 .57-.62c6.07-.3 17.96-1.97 19.26 6.86q.85 5.82-4.89 9.02-.42.24.03.38Zm-.21-4.25c4.9-7.91-5.52-8.98-10.15-8.28a.71.64-4.7 0 0-.61.64v9.75a.86.48 88.9 0 0 .51.88l7.24-.49q1.53-.11 3.01-2.5Zm1.68 16.15c4.98-9.18-6.45-10.07-11.82-9.44a.71.65-4 0 0-.62.65v11a.68.55-87.7 0 0 .5.67q4.69.48 9.28-.56 1.6-.36 2.66-2.32Z"/><path fill="#2d6e89" fill-opacity=".565" d="m263.09 84.61-7.34 12.43q-.85.37-1.42 1.1a.89.71-63.3 0 1-.77.35q-2.43-.45-.25-2.74.73-.77 1.65-4.5.11-.51.02-.97a.49.45 76.6 0 1 .32-.57q2.05-.55.7-2.5l3.02-6.76a.78.73-78 0 1 .67-.47q.69-.02.14 1.2-1.67 3.69 3.26 3.43Z"/><path fill="#2da9e5" fill-opacity=".996" d="M180.31 81.58c.61 2.23 1.01 4.74 3.07 5.96q2.42 1.44 5.35.53.33-.11.81-.53.4-.35 1-.59l6.71 27.01q-.19 2.66-2.8 1.71c-1.54-.57-2.56-.53-4.05-.3a.48.47-10.1 0 0-.4.57l1.21 5.31q-1.06 1.01-2.27.49a1.16.98 41 0 0-.88-.01q-1.22.58-2.56.56l-.54-1.04-7.46-20.54-5.64-17.08-.4-1.63q-.27-1.35.53-1.02 4.48-1.88 8.32.6Z"/><path fill="#1faeeb" d="m149 83.46.54 1.04 6.69 16.7q3.9 11.16 8.93 21.14 4.64 10.62 13.72 17.03.64.45-.12.61l-4.72 1.02q-8.44-3.55-13.08-11.5-5-9.75-8.36-19.9-3.71-12.97-8.31-25.35l4.71-.79Z"/><path fill="#1482c6" d="m171.86 83.63 5.64 17.08q-10.65-.7-21.27.49l-6.69-16.7q.53.78 1.06.54.78-.34.89-.35l20.37-1.06Z"/><path fill="#186d97" fill-opacity=".651" d="m222.25 88.79-2.21 6.96-.3-1.91a.78.47 84.2 0 0-.49-.66l-6.25-.25a.78.55-84.5 0 0-.6.69q-.18 1.52-1.36 1.88l1.63-4.84q1.18-1.1 1.45-2.75a.9.32-81.1 0 1 .46-.84q.41.07.68.42a1.18.78 64.8 0 0 .74.45l4.5.23a1.08.9-64.4 0 0 .78-.36q.52-.57.97.98Z"/><path fill="#19608b" fill-opacity=".624" d="M256 87.21q1.35 1.95-.7 2.5a.49.45 76.6 0 0-.32.57q.09.46-.02.97-.8.1-1.16 1.02-1.38 3.46-4.2 7.14a.99.42 11.1 0 1-.82.17q-1.99-.22-3.49-1.33a.71.47 32.4 0 1-.31-.69q.42-.98.23-2.06l3.79-7.71q3.91 4.32 7-.58Z"/><path fill="#33aee8" d="M114.21 87.5q-.12.64.28.83 3.57 1.68 6.61-.24-1.03 2.02-.81 4.41l-2.2 4.15-7.59 10.14-9.71.21 9.86-14.97 3.56-4.53Z"/><path d="M425.9 109.97q.25-.96-.37-.19c-4.83 6.03-15.32 5.31-16.32-3.28q-.55-4.77-.14-17.39a.97.33-88.1 0 1 .37-.97l3.06.14a.78.51-88.8 0 1 .49.78c-.02 5.72-1.13 16.73 2.12 19.96 2.89 2.86 7.69 1.42 9.51-1.76 2.15-3.77 1.16-13.72 1.13-18.23a.78.5-90 0 1 .5-.78h3a.75.5 90 0 1 .5.75v23.5a.74.57-11.5 0 1-.51.59q-4.6 1.59-3.34-3.12Z"/><rect width="4" height="25" x="436.75" y="88.26" rx=".52"/><path fill="#1266ac" d="M110.65 92.03 100.79 107l-3.94 6.61-7.42 13.38q-1.76-2.12-3.17-.2a1.77 1.25-73.8 0 1-.74.59q-7.22 2.69-14.73 4.37.91-2.98.71-6.04l1.54-4.46 1.17-3.5q-.39 1.33.06 1.52a.75.44-63.3 0 0 .71-.46l10.77-21.1c7.84-1.27 12.34-1.83 18.38-5.8q3.2-2.11 6.52.12Z"/><path fill="#1d6d9b" fill-opacity=".694" d="M254.96 91.25q-.92 3.73-1.65 4.5-2.18 2.29.25 2.74a.89.71-63.3 0 0 .77-.35q.57-.73 1.42-1.1l-6.79 11.21q-1.66.34-2.52-1.14a.39.39-35.1 0 0-.58-.1q-1.48 1.23-4.63.14a.64.63 11.8 0 1-.43-.65l.16-2.25 4.25-8.75q.19 1.08-.23 2.06a.71.47 32.4 0 0 .31.69q1.5 1.11 3.49 1.33a.99.42 11.1 0 0 .82-.17q2.82-3.68 4.2-7.14.36-.92 1.16-1.02Z"/><path fill="#165e81" fill-opacity=".557" d="m220.04 95.75-2.08 6.5-.67 2q-.77-1.73-1.56-.83a.86.7-60.1 0 1-.76.29c-1.48-.33-3.09-.2-4.58-.6q-1.14-.31-1.21 1.08-.03.68-.46.33-.35-.28-.18-1.02l2.5-8q1.18-.36 1.36-1.88a.78.55-84.5 0 1 .6-.69l6.25.25a.78.47 84.2 0 1 .49.66l.3 1.91Z"/><path fill="#0589c5" fill-opacity=".859" d="m118.09 96.65-6.63 22.1q-.39-.13-.54-.48-.24-.58-.19-.02.08.79-.55.59a1 .05 17.4 0 0-.89-.23q-2.5.8-5.01-.94 1.38-1.49 1.68-3.42l4.54-7.46 7.59-10.14Z"/><path fill="#1471b5" d="m177.5 100.71 7.46 20.54q-9.95-.53-19.8 1.09-5.03-9.98-8.93-21.14 10.62-1.19 21.27-.49Z"/><path fill="#134a65" fill-opacity=".439" d="M217.29 104.25q-.99 3.79-3.58 6.75l-4.92 6 .54-2.24a.5.39-78.3 0 0-.29-.59l-1.53-.28a.78.31-71 0 0-.51.6q-.26.72-.93.71a.63.34 5.6 0 0-.56.24q-.93 2.78-.8-.19l3.83-11.75q-.17.74.18 1.02.43.35.46-.33.07-1.39 1.21-1.08c1.49.4 3.1.27 4.58.6a.86.7-60.1 0 0 .76-.29q.79-.9 1.56.83Z"/><path fill="#1b75ae" fill-opacity=".824" d="m240.96 104.25-.16 2.25a.64.63 11.8 0 0 .43.65q3.15 1.09 4.63-.14a.39.39-35.1 0 1 .58.1q.86 1.48 2.52 1.14-7.78 12.77-17.92 23.75-.31-1.41-1.32-1.2-1.61.32-.43-.82 3.24-3.16 1.63-4.61a1.03.83-70.8 0 1-.28-.77l.07-1.1c1.98-2.26 2.89-5.4 4.02-7.39q1.8-3.17 3.57-6.36l2.66-5.5Z"/><path fill="#069bdf" d="m110.5 106.79-4.54 7.46q-4.56.97-9.11-.64l3.94-6.61 9.71-.21Z"/><path fill="#186cb0" d="M238.3 109.75q-1.77 3.19-3.57 6.36c-1.13 1.99-2.04 5.13-4.02 7.39l-3.67 5.5c.1-.94-.42-1.53-1.37-1.6q-8.63-.67-17.23.54 4.02-8.42 7.05-18.03.32-.14.55-.4a1.2.69-58.7 0 1 .77-.42l21.49.66Z"/><path fill="#3ba4df" d="M152.6 109.6q3.36 10.15 8.36 19.9c-2.13.34-6.7-.61-7.25 2q-5.88-9.57-8.67-20.5l7.56-1.4Z"/><path fill="#069bdf" d="M215.49 109.91q-3.03 9.61-7.05 18.03-1.48 3.69-3.69 6.35-3.06-4-4-9l1.75-1.58 6.29-6.71 4.92-6q.87-.79 1.78-1.09Z"/><path fill="#03374f" fill-opacity=".333" d="m73.04 121.25-1.54 4.46-9.54 17.79-1.89-.32a.46.39 10.8 0 1-.39-.48q3.61-14.39 9.61-27.95 1.58-.61 1.84-2.38a.64.5-8.9 0 1 .42-.45l.27-.1a.38.21 88.7 0 1 .25.43l-.63 8.25a1.1.55-76.8 0 0 .19.81c.67.66 1.32-4.42 1.41-.06Z"/><path fill="#0d82ca" d="M96.85 113.61q4.55 1.61 9.11.64-.3 1.93-1.68 3.42l-6.07 10.58-3.42 6q-2.96-1.75-7.04-1.25-.95.12-.79-1l2.47-5.01 7.42-13.38Z"/><path fill="#03374f" fill-opacity=".333" d="m208.79 117-6.29 6.71q.29-4.43 2.21-8.46-.13 2.97.8.19a.63.34 5.6 0 1 .56-.24q.67.01.93-.71a.78.31-71 0 1 .51-.6l1.53.28a.5.39-78.3 0 1 .29.59l-.54 2.24Z"/><path fill="#258bd0" d="m197.25 113.96 3.29 11.29q-2.61 3.3-6.04 5.79l-3.29-9.79-1.21-5.31a.48.47-10.1 0 1 .4-.57c1.49-.23 2.51-.27 4.05.3q2.61.95 2.8-1.71Z"/><path fill="#0594d5" fill-opacity=".922" d="M104.28 117.67q2.51 1.74 5.01.94a1 .05 17.4 0 1 .89.23q.63.2.55-.59-.05-.56.19.02.15.35.54.48-1.34 5.35-4.21 10.04-.87-.88-1.02.2a1.17.38-31.9 0 1-.56.66l-1.28.97q-.11.08-.71.17-.63.09-.93-.27a.36.25 58.4 0 1 .03-.51q.77-.23-.3-.5-2.85-.72-3.05.49-.24 1.42-1.37.43a.72.67-54.8 0 1-.12-.86q.37-.63.27-1.32l6.07-10.58Z"/><path fill="#15589d" d="m184.96 121.25.54 1.04q2.33 5.63 6.04 10.46l-.04 1.21q-4.83 3.08-10.11 5.25a1.15.8-9.8 0 0-.65.64c-.39 1.43 2.74 1.25 3.76 1.61H175l-.96-.46 4.72-1.02q.76-.16.12-.61-9.08-6.41-13.72-17.03 9.85-1.62 19.8-1.09Z"/><path fill="#129ee0" d="m191.21 121.25 3.29 9.79q-1.18 1.41-2.96 1.71-3.71-4.83-6.04-10.46 1.34.02 2.56-.56a1.16.98 41 0 1 .88.01q1.21.52 2.27-.49Z"/><path fill="#1969bb" d="m230.71 123.5-.07 1.1a1.03.83-70.8 0 0 .28.77q1.61 1.45-1.63 4.61-1.18 1.14.43.82 1.01-.21 1.32 1.2-8.7 10.22-22.29 9.76-12.12-.41-24.25-.3c-1.02-.36-4.15-.18-3.76-1.61a1.15.8-9.8 0 1 .65-.64q5.28-2.17 10.11-5.25l6.35 5.25a.92.82-34.8 0 0 .88.11q3.13-1.2 5.77-3.36c1.59 1.58 3.11 4.12 5.33 4.54 6.46 1.23 14.25-7.1 17.21-11.5l3.67-5.5Z"/><path fill="#175fab" d="m200.54 125.25.21.04q.94 5 4 9-.71.72-.25 1.67-2.64 2.16-5.77 3.36a.92.82-34.8 0 1-.88-.11l-6.35-5.25.04-1.21q1.78-.3 2.96-1.71 3.43-2.49 6.04-5.79Z"/><path fill="#05a1e6" d="M71.5 125.71q.2 3.06-.71 6.04l-2.54 11.96-6.29-.21 9.54-17.79Z"/><path fill="#15589d" d="M89.43 126.99 86.96 132q-3.62 5.33-4.62 11.68l-14.09.03 2.54-11.96q7.51-1.68 14.73-4.37a1.77 1.25-73.8 0 0 .74-.59q1.41-1.92 3.17.2ZM227.04 129c-2.96 4.4-10.75 12.73-17.21 11.5-2.22-.42-3.74-2.96-5.33-4.54q-.46-.95.25-1.67 2.21-2.66 3.69-6.35 8.6-1.21 17.23-.54c.95.07 1.47.66 1.37 1.6Z"/><path fill="#069bdf" d="M98.21 128.25q.1.69-.27 1.32a.72.67-54.8 0 0 .12.86q1.13.99 1.37-.43.2-1.21 3.05-.49 1.07.27.3.5a.36.25 58.4 0 0-.03.51q.3.36.93.27.6-.09.71-.17l1.28-.97a1.17.38-31.9 0 0 .56-.66q.15-1.08 1.02-.2-7.17 13.02-22.37 14.34 6.38-2.92 9.91-8.88l3.42-6Z"/><path fill="#258bd0" d="M160.96 129.5q4.64 7.95 13.08 11.5l.96.46q-14.21 1.95-21.29-9.96c.55-2.61 5.12-1.66 7.25-2Z"/><path fill="#1266ac" d="M86.96 132q-.16 1.12.79 1 4.08-.5 7.04 1.25-3.53 5.96-9.91 8.88-.91.53-2.54.55 1-6.35 4.62-11.68Z"/></svg>